<?xml version="1.0" standalone="no"?>
<!DOCTYPE svg PUBLIC "-//W3C//DTD SVG 20010904//EN"
 "http://www.w3.org/TR/2001/REC-SVG-20010904/DTD/svg10.dtd">
<svg version="1.0" xmlns="http://www.w3.org/2000/svg"
 width="1024.000000pt" height="1024.000000pt" viewBox="0 0 1024.000000 1024.000000"
 preserveAspectRatio="xMidYMid meet">
<metadata>
Created by potrace 1.14, written by Peter Selinger 2001-2017
</metadata>
<g transform="translate(0.000000,1024.000000) scale(0.100000,-0.100000)"
fill="#000000" stroke="none">
<path d="M3357 8933 c-1 -1 -34 -3 -72 -4 -39 -2 -73 -8 -77 -13 -4 -6 -12 -5
-21 3 -11 8 -17 9 -22 1 -4 -6 -12 -9 -18 -7 -7 2 -23 0 -37 -5 -14 -6 -36
-12 -50 -15 -13 -2 -30 -9 -37 -15 -7 -6 -13 -7 -13 -2 0 5 -4 4 -8 -1 -4 -6
-20 -17 -36 -25 -33 -17 -116 -93 -116 -106 0 -5 -9 -15 -20 -22 -11 -7 -20
-19 -20 -26 0 -8 -5 -16 -11 -18 -5 -2 -11 -12 -13 -21 -1 -10 -7 -22 -12 -25
-5 -4 -11 -16 -12 -27 -2 -11 -9 -23 -14 -26 -6 -4 -5 -8 3 -11 10 -3 6 -9
-10 -17 -13 -7 -21 -8 -17 -3 3 6 -3 13 -14 17 -11 3 -20 11 -20 17 0 7 -4 7
-13 -1 -8 -6 -17 -8 -21 -4 -8 8 -66 12 -66 4 0 -3 -37 -7 -82 -8 -54 -1 -84
-6 -89 -15 -7 -10 -9 -10 -9 0 0 10 -5 10 -21 1 -16 -8 -20 -8 -14 1 5 9 3 9
-11 2 -11 -5 -29 -8 -41 -7 -13 1 -23 -1 -23 -4 0 -3 -15 -7 -32 -9 -57 -4
-68 -6 -68 -12 0 -4 -6 -7 -12 -8 -23 -2 -43 -8 -65 -20 -13 -7 -23 -9 -23 -5
0 4 -4 4 -8 -2 -4 -5 -25 -19 -47 -30 -90 -44 -234 -161 -235 -191 0 -7 -7
-15 -16 -18 -8 -3 -12 -10 -9 -16 3 -5 1 -10 -5 -10 -6 0 -16 -12 -23 -27 -6
-16 -18 -34 -25 -42 -7 -7 -11 -20 -8 -28 3 -7 -1 -16 -9 -19 -13 -5 -32 -54
-42 -108 -2 -11 -8 -25 -13 -31 -5 -7 -7 -15 -3 -19 4 -4 1 -11 -7 -16 -12 -8
-12 -10 -1 -10 11 0 11 -3 1 -15 -7 -8 -9 -15 -4 -15 4 0 3 -5 -4 -12 -8 -8
-8 -17 -1 -30 7 -14 6 -20 -6 -24 -11 -5 -13 -10 -5 -19 7 -8 7 -16 2 -19 -6
-3 -9 -22 -7 -41 1 -20 -3 -35 -9 -35 -7 0 -8 -3 -1 -8 12 -8 12 -62 1 -81 -5
-7 -5 -16 0 -20 12 -8 11 -34 0 -43 -6 -4 -5 -12 3 -21 7 -9 8 -18 3 -21 -5
-3 -7 -18 -5 -33 2 -16 4 -32 4 -38 -6 -122 -5 -222 2 -218 5 3 4 -4 -2 -16
-8 -14 -9 -27 -2 -40 6 -10 7 -21 4 -25 -13 -12 -14 -48 -1 -40 7 5 8 3 2 -7
-4 -8 -9 -128 -10 -267 -1 -139 -4 -255 -7 -258 -3 -3 -1 -18 3 -34 6 -20 5
-30 -3 -34 -8 -3 -7 -5 2 -5 11 -1 11 -4 1 -16 -10 -12 -10 -15 1 -15 9 0 10
-3 4 -8 -5 -4 -10 -29 -10 -57 0 -27 5 -53 10 -57 7 -5 7 -8 0 -8 -7 0 -10
-378 -10 -1115 0 -737 3 -1115 10 -1115 7 0 7 -3 0 -8 -5 -4 -10 -16 -10 -27
0 -11 5 -23 10 -27 7 -5 7 -8 0 -8 -10 0 -11 -180 -1 -207 3 -7 2 -13 -2 -13
-8 0 -6 -86 3 -107 2 -7 0 -13 -5 -13 -5 0 -5 -13 0 -30 5 -17 5 -30 0 -30 -5
0 -5 -13 0 -30 5 -16 5 -30 1 -30 -5 0 -5 -18 -1 -39 4 -25 3 -44 -3 -50 -8
-8 -7 -11 1 -11 7 0 12 -5 12 -11 0 -5 -6 -7 -12 -3 -9 5 -9 2 1 -9 9 -12 10
-17 2 -17 -8 0 -9 -6 -4 -17 5 -10 8 -70 7 -133 0 -72 3 -118 10 -122 8 -5 7
-8 -2 -8 -8 0 -11 -14 -8 -50 3 -31 0 -50 -6 -50 -7 0 -7 -4 -1 -13 5 -6 8
-34 7 -62 -2 -27 3 -56 9 -64 10 -12 9 -13 -1 -7 -9 6 -12 1 -10 -16 2 -12 7
-29 12 -37 6 -9 5 -12 -2 -7 -7 4 -10 -1 -9 -14 1 -11 4 -20 7 -20 3 0 6 -21
7 -48 3 -85 6 -112 12 -112 3 0 7 -19 9 -42 1 -23 6 -45 10 -48 4 -3 7 -11 8
-17 1 -7 2 -22 2 -34 1 -11 6 -18 11 -14 6 3 8 -3 6 -15 -2 -11 1 -22 6 -25 5
-4 7 -11 4 -16 -4 -5 -1 -9 4 -9 6 0 11 -7 11 -15 0 -9 8 -30 17 -48 9 -18 17
-35 18 -39 0 -4 6 -13 12 -20 7 -6 13 -18 13 -25 0 -7 5 -13 10 -13 6 0 10 -6
10 -13 0 -7 9 -23 20 -35 11 -12 20 -26 20 -32 0 -5 5 -10 10 -10 6 0 10 -4
10 -10 0 -5 25 -34 55 -65 30 -30 55 -60 55 -65 0 -6 4 -9 8 -8 5 2 23 -12 40
-31 18 -18 32 -30 32 -26 0 3 7 0 15 -7 34 -31 43 -36 49 -31 3 4 6 1 6 -6 0
-7 4 -9 10 -6 5 3 10 2 10 -2 0 -13 168 -96 179 -89 5 4 14 -2 20 -11 5 -10
12 -17 15 -15 4 1 30 -1 59 -5 28 -4 55 -6 60 -5 4 1 7 -1 7 -5 0 -9 33 -11
266 -16 94 -2 176 -7 183 -11 6 -4 11 -4 11 1 0 4 1047 8 2328 7 1280 0 2335
3 2345 8 11 6 17 5 17 -2 0 -6 5 -8 10 -5 6 4 29 9 53 11 83 10 92 12 122 24
17 6 30 11 30 10 0 -1 13 3 28 9 16 6 35 11 43 11 8 0 14 5 14 11 0 5 5 7 10
4 6 -3 10 -3 10 2 0 4 20 16 45 26 25 11 45 23 45 29 0 5 5 6 10 3 6 -3 13 1
16 9 3 9 10 14 14 11 5 -3 13 3 19 12 6 10 11 15 11 11 0 -9 31 15 71 55 16
15 34 27 40 27 7 0 10 3 7 6 -3 3 11 21 31 41 20 19 35 39 33 44 -1 5 2 9 7 9
19 0 150 226 158 274 2 11 8 25 14 32 6 7 8 17 5 22 -3 5 1 21 9 36 8 15 9 24
3 20 -7 -5 -8 -2 -2 7 4 8 9 19 10 24 1 6 5 26 9 45 4 19 8 52 9 72 0 21 3 38
6 38 3 0 5 25 5 56 0 31 4 58 8 61 4 3 3 11 -4 19 -9 11 -9 14 1 14 10 0 10 3
0 15 -7 9 -8 15 -2 15 6 0 7 13 2 35 -4 19 -5 35 -1 35 9 0 7 1323 -2 1338 -5
6 -4 12 0 12 10 0 10 270 0 287 -4 6 -3 15 3 18 7 5 8 11 1 19 -6 7 -6 17 -1
26 6 9 4 20 -3 29 -7 8 -7 12 -1 8 11 -6 12 128 1 140 -4 3 -2 14 4 24 7 14 6
19 -3 19 -10 0 -10 2 0 9 8 4 13 11 12 14 -1 4 -5 20 -10 37 -5 18 -5 32 1 36
6 4 6 11 -2 20 -6 8 -7 14 -2 14 10 0 9 112 -1 129 -4 6 -4 11 1 11 7 0 8 54
0 110 -2 14 1 30 5 37 5 6 5 14 -2 18 -6 3 -7 11 -4 17 10 16 11 148 1 148 -4
0 -3 9 3 20 8 15 8 20 -2 20 -8 0 -9 3 -3 8 12 8 14 72 2 72 -4 0 -3 9 3 20 8
15 8 20 -2 20 -8 0 -9 3 -3 8 12 8 14 112 3 112 -4 0 -3 11 2 24 5 13 6 27 3
30 -8 8 -8 80 1 94 3 6 2 13 -3 17 -6 3 -7 15 -3 28 10 27 9 38 -2 56 -6 9 -6
16 0 18 10 3 11 60 1 69 -3 3 -2 18 3 33 4 16 4 34 0 41 -5 7 -4 24 0 36 6 15
5 26 -1 30 -6 4 -6 11 2 20 7 9 8 14 1 14 -7 0 -8 10 -2 30 5 18 5 30 0 30 -6
0 -5 11 0 26 13 33 13 37 -2 28 -6 -4 -9 -3 -6 2 12 18 17 80 8 94 -5 8 -5 21
1 32 7 12 6 18 -1 18 -6 0 -8 5 -4 12 11 17 11 58 1 58 -4 0 -5 5 -2 10 11 18
12 110 1 110 -7 0 -8 3 -1 8 6 4 10 131 10 344 0 186 3 338 6 338 3 0 3 22 -1
49 -3 27 -3 58 2 70 4 12 4 21 -1 21 -5 0 -5 18 -1 40 4 22 5 42 1 44 -9 6 -6
60 4 76 6 9 4 11 -5 5 -10 -6 -12 -3 -8 13 4 12 2 25 -3 28 -6 4 -6 11 1 19 8
10 8 15 -1 20 -8 6 -8 10 2 15 9 6 10 12 2 22 -6 7 -10 20 -10 28 -1 8 -4 24
-9 34 -5 14 -4 17 5 12 8 -6 7 2 -3 23 -9 16 -17 42 -18 56 -1 14 -6 25 -10
25 -4 0 -8 6 -8 14 0 7 -7 26 -14 42 -8 15 -13 31 -10 36 3 4 1 8 -5 8 -5 0
-12 8 -16 19 -3 10 -13 28 -23 39 -9 11 -24 30 -32 42 -24 34 -108 120 -118
120 -5 0 -17 11 -28 24 -10 14 -21 23 -26 20 -4 -3 -8 0 -8 6 0 6 -4 9 -9 6
-5 -4 -11 -3 -13 2 -4 10 -128 75 -128 67 0 -3 -11 2 -25 11 -14 9 -25 13 -25
9 0 -4 -6 -2 -14 4 -8 7 -31 13 -50 14 -20 1 -36 6 -36 11 0 4 -6 6 -14 3 -8
-3 -17 -3 -21 1 -4 4 -16 7 -28 8 -12 1 -30 5 -40 9 -10 4 -35 8 -57 9 -22 0
-40 4 -40 7 0 10 -34 5 -42 -6 -5 -7 -8 -6 -8 0 0 14 -80 14 -80 1 0 -6 -4 -5
-9 3 -6 10 -10 10 -16 1 -4 -7 -14 3 -27 26 -11 20 -26 44 -34 51 -8 8 -14 19
-14 24 0 15 -4 22 -25 44 -11 12 -27 32 -35 45 -8 13 -23 30 -34 39 -10 9 -27
25 -37 35 -11 11 -19 17 -19 13 0 -4 -9 2 -20 13 -11 11 -27 20 -35 20 -8 0
-15 5 -15 12 0 6 -3 8 -7 5 -3 -4 -12 -2 -20 4 -7 6 -13 8 -13 4 0 -4 -7 -2
-15 5 -8 7 -15 10 -15 6 0 -3 -15 0 -33 7 -18 8 -41 11 -52 7 -11 -4 -25 -3
-32 2 -17 13 -344 17 -362 3 -10 -6 -13 -6 -9 0 8 14 -104 13 -114 0 -5 -7 -8
-7 -8 0 0 12 -90 7 -107 -7 -7 -5 -14 -5 -17 1 -5 7 -15 7 -31 1 -14 -5 -25
-7 -25 -4 0 4 -6 1 -13 -5 -8 -6 -16 -8 -19 -5 -4 3 -21 -3 -40 -12 -18 -10
-35 -18 -38 -19 -13 -1 -70 -40 -70 -48 0 -4 -3 -6 -7 -4 -5 3 -21 -8 -36 -24
-16 -16 -25 -29 -22 -29 3 0 -6 -11 -21 -25 -15 -14 -24 -25 -20 -25 3 0 -2
-9 -11 -19 -31 -33 -43 -50 -44 -58 -1 -5 -5 -18 -10 -31 -5 -13 -9 -28 -9
-33 0 -5 -7 -9 -15 -9 -8 0 -15 -6 -15 -12 0 -9 -3 -9 -9 1 -15 24 -207 33
-723 35 -270 0 -488 5 -488 10 0 5 -6 4 -12 -1 -11 -7 -93 -10 -93 -3 0 5 -47
6 -50 0 -5 -9 -37 -6 -53 4 -6 4 -12 4 -12 -1 0 -4 -19 -8 -43 -9 -68 -1 -180
-12 -210 -19 -31 -8 -44 3 -73 63 -9 17 -20 32 -25 32 -5 0 -9 6 -9 13 -1 29
-188 205 -203 190 -3 -3 -14 2 -23 11 -9 10 -23 15 -30 12 -7 -3 -16 -1 -19 4
-4 6 -17 10 -30 10 -13 0 -26 4 -29 8 -3 5 -18 8 -33 7 -15 -1 -31 3 -35 9 -6
7 -11 6 -18 -4 -5 -8 -10 -10 -10 -4 0 7 -66 10 -201 10 -110 -1 -201 -2 -202
-3z m2643 -445 c0 -26 -9 -19 -15 11 -2 12 0 19 6 16 5 -4 9 -16 9 -27z m1914
-199 c21 -6 36 -13 33 -16 -4 -3 -20 0 -38 6 -18 6 -56 11 -85 11 -30 0 -54 4
-54 9 0 11 87 4 144 -10z m107 -46 c13 -15 12 -15 -11 -3 -34 17 -36 20 -18
20 9 0 22 -7 29 -17z m155 -122 c22 -24 54 -69 69 -100 42 -84 57 -125 62
-166 2 -16 6 -37 10 -45 8 -22 9 -70 1 -70 -4 0 -9 26 -13 58 -14 133 -68 245
-162 341 -40 40 -73 76 -73 79 0 7 53 -41 106 -97z m-1466 -5145 c0 -3 -4 -8
-10 -11 -5 -3 -10 -1 -10 4 0 6 5 11 10 11 6 0 10 -2 10 -4z m100 -6 c0 -8
-77 -6 -85 1 -2 3 16 5 40 5 25 1 45 -2 45 -6z m100 1 c0 -8 -77 -8 -85 0 -3
3 15 6 40 6 25 0 45 -3 45 -6z m86 -3 c6 -9 -65 -3 -74 7 -4 3 11 5 32 3 20
-1 40 -6 42 -10z m211 -2 c4 -3 -39 -6 -95 -5 -56 0 -102 4 -102 8 0 9 188 6
197 -3z"/>
<path d="M2153 1885 c0 -8 4 -12 9 -9 5 3 6 10 3 15 -9 13 -12 11 -12 -6z"/>
<path d="M5106 1772 c-3 -5 1 -9 9 -9 8 0 12 4 9 9 -3 4 -7 8 -9 8 -2 0 -6 -4
-9 -8z"/>
<path d="M4265 1760 c-3 -6 1 -7 9 -4 18 7 21 14 7 14 -6 0 -13 -4 -16 -10z"/>
<path d="M5166 1758 c3 -5 10 -6 15 -3 13 9 11 12 -6 12 -8 0 -12 -4 -9 -9z"/>
<path d="M5305 1760 c-3 -6 1 -7 9 -4 18 7 21 14 7 14 -6 0 -13 -4 -16 -10z"/>
</g>
</svg>
